# xmcd
#
# Track frame offsets: 
#        150
#        15979
#        30136
#        44403
#        58892
#        71936
#        86395
#        99451
#        113138
#        125314
#        140189
#        153555
#        167692
#        182442
#        196294
#        210246
#        224181
#        238533
#        251417
#        265445
#        279711
#        293177
#        305279
#        319630
#        328967
#
# Disc length: 4588 seconds
#
# Revision: 0
# Processed by: cddbd v1.5.1PL2 Copyright (c) Steve Scherf et al.
# Submitted via: ExactAudioCopy v0.95b3
#
DISCID=7211ea19
DTITLE=Various Artist - 20th Century Blues [CD2)
DYEAR=2000
DGENRE=Blues
TTITLE0=Tampa Red - Train Time Blues
TTITLE1=Hambone Willie Newbern - Nobody Knows
TTITLE2=Lee Green - Number Forty Four Blues
TTITLE3=Speckled Red - The Dirty Dozens
TTITLE4=Robert Wilkins - That's No Way To Get Along
TTITLE5=Sleepy John Estes - Divin' Duck Blues
TTITLE6=Noah Lewis - Devil In the Woodpile
TTITLE7=Blind Willie McTell - Come Around To My House Mama
TTITLE8=Georgia Tom - Six Shooter Blues
TTITLE9=Mississippi Sheiks - Sitting On Top of The World
TTITLE10=Son House - Preachin'the Blues
TTITLE11=Little Hat Jones - Bye Bye Baby Blues
TTITLE12=Kansas Joe - Bothering That Thing
TTITLE13=Memphis Jug Band - You May Leave
TTITLE14=Lucille Bogan - Black Angel Blues
TTITLE15=Walter Vinson - Things About Coming My Way
TTITLE16=Skip James - Cypress Grove Blues
TTITLE17=Big Bill Broonzy - How You Want It Done?
TTITLE18=Curley Weaver - Baby Boogie Woogie
TTITLE19=Buddy Moss - Hard Time Blues
TTITLE20=Memphis Minnie - My Butcher Man
TTITLE21=Charley Patton - Hang It On The Wall
TTITLE22=Yank Rachel - Night Latch Blues
TTITLE23=Leadbelly - Midnight Special
TTITLE24=Peetie Wheatstraw - Numbers Blues
EXTD=
EXTT0=
EXTT1=
EXTT2=
EXTT3=
EXTT4=
EXTT5=
EXTT6=
EXTT7=
EXTT8=
EXTT9=
EXTT10=
EXTT11=
EXTT12=
EXTT13=
EXTT14=
EXTT15=
EXTT16=
EXTT17=
EXTT18=
EXTT19=
EXTT20=
EXTT21=
EXTT22=
EXTT23=
EXTT24=
PLAYORDER=
